<svg xmlns="http://www.w3.org/2000/svg" viewBox="0 0 512 512" fill="none">
  <defs>
    <linearGradient id="bg" x1="0" y1="0" x2="512" y2="512" gradientUnits="userSpaceOnUse">
      <stop stop-color="#7C3AED"/>
      <stop offset="0.55" stop-color="#4F46E5"/>
      <stop offset="1" stop-color="#312E81"/>
    </linearGradient>
    <linearGradient id="gold" x1="196" y1="196" x2="316" y2="316" gradientUnits="userSpaceOnUse">
      <stop stop-color="#FEF3C7"/>
      <stop offset="0.5" stop-color="#FBBF24"/>
      <stop offset="1" stop-color="#D97706"/>
    </linearGradient>
  </defs>
  <rect width="512" height="512" fill="url(#bg)"/>
  <g transform="translate(256 256) scale(0.72)">
    <path d="M0 -72l14 41 41 14-41 14-14 41-14-41-41-14 41-14 14-41z" fill="url(#gold)"/>
    <path d="M-88 -32l8 22 22 8-22 8-8 22-8-22-22-8 22-8 8-22z" fill="#FEF9C3"/>
    <path d="M88 -32l8 22 22 8-22 8-8 22-8-22-22-8 22-8 8-22z" fill="#FEF9C3"/>
    <path d="M-44 72l6 16 16 6-16 6-6 16-6-16-16-6 16-6 6-16z" fill="#FCD34D"/>
    <path d="M44 72l6 16 16 6-16 6-6 16-6-16-16-6 16-6 6-16z" fill="#FCD34D"/>
  </g>
</svg>
