<svg xmlns="http://www.w3.org/2000/svg" viewBox="0 0 512 512" fill="none">
  <defs>
    <linearGradient id="bg" x1="64" y1="48" x2="448" y2="464" gradientUnits="userSpaceOnUse">
      <stop stop-color="#7C3AED"/>
      <stop offset="0.55" stop-color="#4F46E5"/>
      <stop offset="1" stop-color="#312E81"/>
    </linearGradient>
    <linearGradient id="gold" x1="180" y1="120" x2="340" y2="380" gradientUnits="userSpaceOnUse">
      <stop stop-color="#FDE68A"/>
      <stop offset="0.5" stop-color="#FBBF24"/>
      <stop offset="1" stop-color="#D97706"/>
    </linearGradient>
    <filter id="glow" x="-20%" y="-20%" width="140%" height="140%">
      <feGaussianBlur stdDeviation="8" result="blur"/>
      <feMerge>
        <feMergeNode in="blur"/>
        <feMergeNode in="SourceGraphic"/>
      </feMerge>
    </filter>
  </defs>
  <rect width="512" height="512" rx="112" fill="url(#bg)"/>
  <rect x="8" y="8" width="496" height="496" rx="104" stroke="rgba(255,255,255,0.18)" stroke-width="4"/>
  <g filter="url(#glow)">
    <path d="M256 108l18 52 54 18-54 18-18 52-18-52-54-18 54-18 18-52z" fill="url(#gold)"/>
    <path d="M148 196l10 28 28 10-28 10-10 28-10-28-28-10 28-10 10-28z" fill="#FEF3C7" opacity="0.95"/>
    <path d="M364 196l10 28 28 10-28 10-10 28-10-28-28-10 28-10 10-28z" fill="#FEF3C7" opacity="0.95"/>
    <path d="M196 348l8 22 22 8-22 8-8 22-8-22-22-8 22-8 8-22z" fill="#FCD34D" opacity="0.9"/>
    <path d="M316 348l8 22 22 8-22 8-8 22-8-22-22-8 22-8 8-22z" fill="#FCD34D" opacity="0.9"/>
  </g>
</svg>
